<svg width="56" height="56" viewBox="0 0 56 56" fill="none" xmlns="http://www.w3.org/2000/svg">
  <rect width="56" height="56" rx="28" fill="#D1FAE5"/>
  <path d="M38 27.0799V28.0099C37.9988 30.1563 37.3005 32.2545 36.0093 33.9818C34.7182 35.7091 32.9033 36.9724 30.8354 37.5839C28.7674 38.1953 26.5573 38.1219 24.5345 37.3746C22.5117 36.6273 20.7847 35.2461 19.611 33.4371C18.4373 31.628 17.8798 29.4881 18.0217 27.3363C18.1636 25.1846 18.9972 23.1363 20.3983 21.4971C21.7994 19.8579 23.6928 18.7154 25.7962 18.2401C27.8996 17.7649 30.1003 17.9823 32.07 18.8599M38 22L28 32.01L25 29.01" stroke="#059669" stroke-width="2" stroke-linecap="round" stroke-linejoin="round"/>
</svg>

